<?xml version="1.0" encoding="utf-8" standalone="no"?>
<!DOCTYPE svg PUBLIC "-//W3C//DTD SVG 1.1//EN"
  "http://www.w3.org/Graphics/SVG/1.1/DTD/svg11.dtd">
<svg xmlns:xlink="http://www.w3.org/1999/xlink" width="1001.551563pt" height="379.384531pt" viewBox="0 0 1001.551563 379.384531" xmlns="http://www.w3.org/2000/svg" version="1.1">
 <metadata>
  <rdf:RDF xmlns:dc="http://purl.org/dc/elements/1.1/" xmlns:cc="http://creativecommons.org/ns#" xmlns:rdf="http://www.w3.org/1999/02/22-rdf-syntax-ns#">
   <cc:Work>
    <dc:type rdf:resource="http://purl.org/dc/dcmitype/StillImage"/>
    <dc:date>2024-06-09T10:21:53.314307</dc:date>
    <dc:format>image/svg+xml</dc:format>
    <dc:creator>
     <cc:Agent>
      <dc:title>Matplotlib v3.5.2, https://matplotlib.org/</dc:title>
     </cc:Agent>
    </dc:creator>
   </cc:Work>
  </rdf:RDF>
 </metadata>
 <defs>
  <style type="text/css">*{stroke-linejoin: round; stroke-linecap: butt}</style>
 </defs>
 <g id="figure_1">
  <g id="patch_1">
   <path d="M 0 379.384531 
L 1001.551563 379.384531 
L 1001.551563 0 
L 0 0 
L 0 379.384531 
z
" style="fill: none"/>
  </g>
  <g id="axes_1">
   <g id="patch_2">
    <path d="M 48.17125 331.478906 
L 661.97125 331.478906 
L 661.97125 5.318906 
L 48.17125 5.318906 
z
" style="fill: #ffffff"/>
   </g>
   <g id="matplotlib.axis_1">
    <g id="xtick_1">
     <g id="line2d_1">
      <path d="M 112.781776 331.478906 
L 112.781776 5.318906 
" clip-path="url(#p24e0dd588f)" style="fill: none; stroke-dasharray: 2.96,1.28; stroke-dashoffset: 0; stroke: #b0b0b0; stroke-width: 0.8"/>
     </g>
     <g id="line2d_2">
      <defs>
       <path id="m8b62f14421" d="M 0 0 
L 0 3.5 
" style="stroke: #000000; stroke-width: 0.8"/>
      </defs>
      <g>
       <use xlink:href="#m8b62f14421" x="112.781776" y="331.478906" style="stroke: #000000; stroke-width: 0.8"/>
      </g>
     </g>
     <g id="text_1">
      <!-- 60 -->
      <g transform="translate(103.874276 349.116719)scale(0.14 -0.14)">
       <defs>
        <path id="DejaVuSans-36" d="M 2113 2584 
Q 1688 2584 1439 2293 
Q 1191 2003 1191 1497 
Q 1191 994 1439 701 
Q 1688 409 2113 409 
Q 2538 409 2786 701 
Q 3034 994 3034 1497 
Q 3034 2003 2786 2293 
Q 2538 2584 2113 2584 
z
M 3366 4563 
L 3366 3988 
Q 3128 4100 2886 4159 
Q 2644 4219 2406 4219 
Q 1781 4219 1451 3797 
Q 1122 3375 1075 2522 
Q 1259 2794 1537 2939 
Q 1816 3084 2150 3084 
Q 2853 3084 3261 2657 
Q 3669 2231 3669 1497 
Q 3669 778 3244 343 
Q 2819 -91 2113 -91 
Q 1303 -91 875 529 
Q 447 1150 447 2328 
Q 447 3434 972 4092 
Q 1497 4750 2381 4750 
Q 2619 4750 2861 4703 
Q 3103 4656 3366 4563 
z
" transform="scale(0.015625)"/>
        <path id="DejaVuSans-30" d="M 2034 4250 
Q 1547 4250 1301 3770 
Q 1056 3291 1056 2328 
Q 1056 1369 1301 889 
Q 1547 409 2034 409 
Q 2525 409 2770 889 
Q 3016 1369 3016 2328 
Q 3016 3291 2770 3770 
Q 2525 4250 2034 4250 
z
M 2034 4750 
Q 2819 4750 3233 4129 
Q 3647 3509 3647 2328 
Q 3647 1150 3233 529 
Q 2819 -91 2034 -91 
Q 1250 -91 836 529 
Q 422 1150 422 2328 
Q 422 3509 836 4129 
Q 1250 4750 2034 4750 
z
" transform="scale(0.015625)"/>
       </defs>
       <use xlink:href="#DejaVuSans-36"/>
       <use xlink:href="#DejaVuSans-30" x="63.623047"/>
      </g>
     </g>
    </g>
    <g id="xtick_2">
     <g id="line2d_3">
      <path d="M 193.544934 331.478906 
L 193.544934 5.318906 
" clip-path="url(#p24e0dd588f)" style="fill: none; stroke-dasharray: 2.96,1.28; stroke-dashoffset: 0; stroke: #b0b0b0; stroke-width: 0.8"/>
     </g>
     <g id="line2d_4">
      <g>
       <use xlink:href="#m8b62f14421" x="193.544934" y="331.478906" style="stroke: #000000; stroke-width: 0.8"/>
      </g>
     </g>
     <g id="text_2">
      <!-- 65 -->
      <g transform="translate(184.637434 349.116719)scale(0.14 -0.14)">
       <defs>
        <path id="DejaVuSans-35" d="M 691 4666 
L 3169 4666 
L 3169 4134 
L 1269 4134 
L 1269 2991 
Q 1406 3038 1543 3061 
Q 1681 3084 1819 3084 
Q 2600 3084 3056 2656 
Q 3513 2228 3513 1497 
Q 3513 744 3044 326 
Q 2575 -91 1722 -91 
Q 1428 -91 1123 -41 
Q 819 9 494 109 
L 494 744 
Q 775 591 1075 516 
Q 1375 441 1709 441 
Q 2250 441 2565 725 
Q 2881 1009 2881 1497 
Q 2881 1984 2565 2268 
Q 2250 2553 1709 2553 
Q 1456 2553 1204 2497 
Q 953 2441 691 2322 
L 691 4666 
z
" transform="scale(0.015625)"/>
       </defs>
       <use xlink:href="#DejaVuSans-36"/>
       <use xlink:href="#DejaVuSans-35" x="63.623047"/>
      </g>
     </g>
    </g>
    <g id="xtick_3">
     <g id="line2d_5">
      <path d="M 274.308092 331.478906 
L 274.308092 5.318906 
" clip-path="url(#p24e0dd588f)" style="fill: none; stroke-dasharray: 2.96,1.28; stroke-dashoffset: 0; stroke: #b0b0b0; stroke-width: 0.8"/>
     </g>
     <g id="line2d_6">
      <g>
       <use xlink:href="#m8b62f14421" x="274.308092" y="331.478906" style="stroke: #000000; stroke-width: 0.8"/>
      </g>
     </g>
     <g id="text_3">
      <!-- 70 -->
      <g transform="translate(265.400592 349.116719)scale(0.14 -0.14)">
       <defs>
        <path id="DejaVuSans-37" d="M 525 4666 
L 3525 4666 
L 3525 4397 
L 1831 0 
L 1172 0 
L 2766 4134 
L 525 4134 
L 525 4666 
z
" transform="scale(0.015625)"/>
       </defs>
       <use xlink:href="#DejaVuSans-37"/>
       <use xlink:href="#DejaVuSans-30" x="63.623047"/>
      </g>
     </g>
    </g>
    <g id="xtick_4">
     <g id="line2d_7">
      <path d="M 355.07125 331.478906 
L 355.07125 5.318906 
" clip-path="url(#p24e0dd588f)" style="fill: none; stroke-dasharray: 2.96,1.28; stroke-dashoffset: 0; stroke: #b0b0b0; stroke-width: 0.8"/>
     </g>
     <g id="line2d_8">
      <g>
       <use xlink:href="#m8b62f14421" x="355.07125" y="331.478906" style="stroke: #000000; stroke-width: 0.8"/>
      </g>
     </g>
     <g id="text_4">
      <!-- 75 -->
      <g transform="translate(346.16375 349.116719)scale(0.14 -0.14)">
       <use xlink:href="#DejaVuSans-37"/>
       <use xlink:href="#DejaVuSans-35" x="63.623047"/>
      </g>
     </g>
    </g>
    <g id="xtick_5">
     <g id="line2d_9">
      <path d="M 435.834408 331.478906 
L 435.834408 5.318906 
" clip-path="url(#p24e0dd588f)" style="fill: none; stroke-dasharray: 2.96,1.28; stroke-dashoffset: 0; stroke: #b0b0b0; stroke-width: 0.8"/>
     </g>
     <g id="line2d_10">
      <g>
       <use xlink:href="#m8b62f14421" x="435.834408" y="331.478906" style="stroke: #000000; stroke-width: 0.8"/>
      </g>
     </g>
     <g id="text_5">
      <!-- 80 -->
      <g transform="translate(426.926908 349.116719)scale(0.14 -0.14)">
       <defs>
        <path id="DejaVuSans-38" d="M 2034 2216 
Q 1584 2216 1326 1975 
Q 1069 1734 1069 1313 
Q 1069 891 1326 650 
Q 1584 409 2034 409 
Q 2484 409 2743 651 
Q 3003 894 3003 1313 
Q 3003 1734 2745 1975 
Q 2488 2216 2034 2216 
z
M 1403 2484 
Q 997 2584 770 2862 
Q 544 3141 544 3541 
Q 544 4100 942 4425 
Q 1341 4750 2034 4750 
Q 2731 4750 3128 4425 
Q 3525 4100 3525 3541 
Q 3525 3141 3298 2862 
Q 3072 2584 2669 2484 
Q 3125 2378 3379 2068 
Q 3634 1759 3634 1313 
Q 3634 634 3220 271 
Q 2806 -91 2034 -91 
Q 1263 -91 848 271 
Q 434 634 434 1313 
Q 434 1759 690 2068 
Q 947 2378 1403 2484 
z
M 1172 3481 
Q 1172 3119 1398 2916 
Q 1625 2713 2034 2713 
Q 2441 2713 2670 2916 
Q 2900 3119 2900 3481 
Q 2900 3844 2670 4047 
Q 2441 4250 2034 4250 
Q 1625 4250 1398 4047 
Q 1172 3844 1172 3481 
z
" transform="scale(0.015625)"/>
       </defs>
       <use xlink:href="#DejaVuSans-38"/>
       <use xlink:href="#DejaVuSans-30" x="63.623047"/>
      </g>
     </g>
    </g>
    <g id="xtick_6">
     <g id="line2d_11">
      <path d="M 516.597566 331.478906 
L 516.597566 5.318906 
" clip-path="url(#p24e0dd588f)" style="fill: none; stroke-dasharray: 2.96,1.28; stroke-dashoffset: 0; stroke: #b0b0b0; stroke-width: 0.8"/>
     </g>
     <g id="line2d_12">
      <g>
       <use xlink:href="#m8b62f14421" x="516.597566" y="331.478906" style="stroke: #000000; stroke-width: 0.8"/>
      </g>
     </g>
     <g id="text_6">
      <!-- 85 -->
      <g transform="translate(507.690066 349.116719)scale(0.14 -0.14)">
       <use xlink:href="#DejaVuSans-38"/>
       <use xlink:href="#DejaVuSans-35" x="63.623047"/>
      </g>
     </g>
    </g>
    <g id="xtick_7">
     <g id="line2d_13">
      <path d="M 597.360724 331.478906 
L 597.360724 5.318906 
" clip-path="url(#p24e0dd588f)" style="fill: none; stroke-dasharray: 2.96,1.28; stroke-dashoffset: 0; stroke: #b0b0b0; stroke-width: 0.8"/>
     </g>
     <g id="line2d_14">
      <g>
       <use xlink:href="#m8b62f14421" x="597.360724" y="331.478906" style="stroke: #000000; stroke-width: 0.8"/>
      </g>
     </g>
     <g id="text_7">
      <!-- 90 -->
      <g transform="translate(588.453224 349.116719)scale(0.14 -0.14)">
       <defs>
        <path id="DejaVuSans-39" d="M 703 97 
L 703 672 
Q 941 559 1184 500 
Q 1428 441 1663 441 
Q 2288 441 2617 861 
Q 2947 1281 2994 2138 
Q 2813 1869 2534 1725 
Q 2256 1581 1919 1581 
Q 1219 1581 811 2004 
Q 403 2428 403 3163 
Q 403 3881 828 4315 
Q 1253 4750 1959 4750 
Q 2769 4750 3195 4129 
Q 3622 3509 3622 2328 
Q 3622 1225 3098 567 
Q 2575 -91 1691 -91 
Q 1453 -91 1209 -44 
Q 966 3 703 97 
z
M 1959 2075 
Q 2384 2075 2632 2365 
Q 2881 2656 2881 3163 
Q 2881 3666 2632 3958 
Q 2384 4250 1959 4250 
Q 1534 4250 1286 3958 
Q 1038 3666 1038 3163 
Q 1038 2656 1286 2365 
Q 1534 2075 1959 2075 
z
" transform="scale(0.015625)"/>
       </defs>
       <use xlink:href="#DejaVuSans-39"/>
       <use xlink:href="#DejaVuSans-30" x="63.623047"/>
      </g>
     </g>
    </g>
    <g id="text_8">
     <!-- Generalization -->
     <g transform="translate(282.3525 375.225156)scale(0.2 -0.2)">
      <defs>
       <path id="DejaVuSans-47" d="M 3809 666 
L 3809 1919 
L 2778 1919 
L 2778 2438 
L 4434 2438 
L 4434 434 
Q 4069 175 3628 42 
Q 3188 -91 2688 -91 
Q 1594 -91 976 548 
Q 359 1188 359 2328 
Q 359 3472 976 4111 
Q 1594 4750 2688 4750 
Q 3144 4750 3555 4637 
Q 3966 4525 4313 4306 
L 4313 3634 
Q 3963 3931 3569 4081 
Q 3175 4231 2741 4231 
Q 1884 4231 1454 3753 
Q 1025 3275 1025 2328 
Q 1025 1384 1454 906 
Q 1884 428 2741 428 
Q 3075 428 3337 486 
Q 3600 544 3809 666 
z
" transform="scale(0.015625)"/>
       <path id="DejaVuSans-65" d="M 3597 1894 
L 3597 1613 
L 953 1613 
Q 991 1019 1311 708 
Q 1631 397 2203 397 
Q 2534 397 2845 478 
Q 3156 559 3463 722 
L 3463 178 
Q 3153 47 2828 -22 
Q 2503 -91 2169 -91 
Q 1331 -91 842 396 
Q 353 884 353 1716 
Q 353 2575 817 3079 
Q 1281 3584 2069 3584 
Q 2775 3584 3186 3129 
Q 3597 2675 3597 1894 
z
M 3022 2063 
Q 3016 2534 2758 2815 
Q 2500 3097 2075 3097 
Q 1594 3097 1305 2825 
Q 1016 2553 972 2059 
L 3022 2063 
z
" transform="scale(0.015625)"/>
       <path id="DejaVuSans-6e" d="M 3513 2113 
L 3513 0 
L 2938 0 
L 2938 2094 
Q 2938 2591 2744 2837 
Q 2550 3084 2163 3084 
Q 1697 3084 1428 2787 
Q 1159 2491 1159 1978 
L 1159 0 
L 581 0 
L 581 3500 
L 1159 3500 
L 1159 2956 
Q 1366 3272 1645 3428 
Q 1925 3584 2291 3584 
Q 2894 3584 3203 3211 
Q 3513 2838 3513 2113 
z
" transform="scale(0.015625)"/>
       <path id="DejaVuSans-72" d="M 2631 2963 
Q 2534 3019 2420 3045 
Q 2306 3072 2169 3072 
Q 1681 3072 1420 2755 
Q 1159 2438 1159 1844 
L 1159 0 
L 581 0 
L 581 3500 
L 1159 3500 
L 1159 2956 
Q 1341 3275 1631 3429 
Q 1922 3584 2338 3584 
Q 2397 3584 2469 3576 
Q 2541 3569 2628 3553 
L 2631 2963 
z
" transform="scale(0.015625)"/>
       <path id="DejaVuSans-61" d="M 2194 1759 
Q 1497 1759 1228 1600 
Q 959 1441 959 1056 
Q 959 750 1161 570 
Q 1363 391 1709 391 
Q 2188 391 2477 730 
Q 2766 1069 2766 1631 
L 2766 1759 
L 2194 1759 
z
M 3341 1997 
L 3341 0 
L 2766 0 
L 2766 531 
Q 2569 213 2275 61 
Q 1981 -91 1556 -91 
Q 1019 -91 701 211 
Q 384 513 384 1019 
Q 384 1609 779 1909 
Q 1175 2209 1959 2209 
L 2766 2209 
L 2766 2266 
Q 2766 2663 2505 2880 
Q 2244 3097 1772 3097 
Q 1472 3097 1187 3025 
Q 903 2953 641 2809 
L 641 3341 
Q 956 3463 1253 3523 
Q 1550 3584 1831 3584 
Q 2591 3584 2966 3190 
Q 3341 2797 3341 1997 
z
" transform="scale(0.015625)"/>
       <path id="DejaVuSans-6c" d="M 603 4863 
L 1178 4863 
L 1178 0 
L 603 0 
L 603 4863 
z
" transform="scale(0.015625)"/>
       <path id="DejaVuSans-69" d="M 603 3500 
L 1178 3500 
L 1178 0 
L 603 0 
L 603 3500 
z
M 603 4863 
L 1178 4863 
L 1178 4134 
L 603 4134 
L 603 4863 
z
" transform="scale(0.015625)"/>
       <path id="DejaVuSans-7a" d="M 353 3500 
L 3084 3500 
L 3084 2975 
L 922 459 
L 3084 459 
L 3084 0 
L 275 0 
L 275 525 
L 2438 3041 
L 353 3041 
L 353 3500 
z
" transform="scale(0.015625)"/>
       <path id="DejaVuSans-74" d="M 1172 4494 
L 1172 3500 
L 2356 3500 
L 2356 3053 
L 1172 3053 
L 1172 1153 
Q 1172 725 1289 603 
Q 1406 481 1766 481 
L 2356 481 
L 2356 0 
L 1766 0 
Q 1100 0 847 248 
Q 594 497 594 1153 
L 594 3053 
L 172 3053 
L 172 3500 
L 594 3500 
L 594 4494 
L 1172 4494 
z
" transform="scale(0.015625)"/>
       <path id="DejaVuSans-6f" d="M 1959 3097 
Q 1497 3097 1228 2736 
Q 959 2375 959 1747 
Q 959 1119 1226 758 
Q 1494 397 1959 397 
Q 2419 397 2687 759 
Q 2956 1122 2956 1747 
Q 2956 2369 2687 2733 
Q 2419 3097 1959 3097 
z
M 1959 3584 
Q 2709 3584 3137 3096 
Q 3566 2609 3566 1747 
Q 3566 888 3137 398 
Q 2709 -91 1959 -91 
Q 1206 -91 779 398 
Q 353 888 353 1747 
Q 353 2609 779 3096 
Q 1206 3584 1959 3584 
z
" transform="scale(0.015625)"/>
      </defs>
      <use xlink:href="#DejaVuSans-47"/>
      <use xlink:href="#DejaVuSans-65" x="77.490234"/>
      <use xlink:href="#DejaVuSans-6e" x="139.013672"/>
      <use xlink:href="#DejaVuSans-65" x="202.392578"/>
      <use xlink:href="#DejaVuSans-72" x="263.916016"/>
      <use xlink:href="#DejaVuSans-61" x="305.029297"/>
      <use xlink:href="#DejaVuSans-6c" x="366.308594"/>
      <use xlink:href="#DejaVuSans-69" x="394.091797"/>
      <use xlink:href="#DejaVuSans-7a" x="421.875"/>
      <use xlink:href="#DejaVuSans-61" x="474.365234"/>
      <use xlink:href="#DejaVuSans-74" x="535.644531"/>
      <use xlink:href="#DejaVuSans-69" x="574.853516"/>
      <use xlink:href="#DejaVuSans-6f" x="602.636719"/>
      <use xlink:href="#DejaVuSans-6e" x="663.818359"/>
     </g>
    </g>
   </g>
   <g id="matplotlib.axis_2">
    <g id="ytick_1">
     <g id="line2d_15">
      <path d="M 48.17125 331.478906 
L 661.97125 331.478906 
" clip-path="url(#p24e0dd588f)" style="fill: none; stroke-dasharray: 2.96,1.28; stroke-dashoffset: 0; stroke: #b0b0b0; stroke-width: 0.8"/>
     </g>
     <g id="line2d_16">
      <defs>
       <path id="me6497d0dc4" d="M 0 0 
L -3.5 0 
" style="stroke: #000000; stroke-width: 0.8"/>
      </defs>
      <g>
       <use xlink:href="#me6497d0dc4" x="48.17125" y="331.478906" style="stroke: #000000; stroke-width: 0.8"/>
      </g>
     </g>
     <g id="text_9">
      <!-- 45 -->
      <g transform="translate(23.35625 336.797813)scale(0.14 -0.14)">
       <defs>
        <path id="DejaVuSans-34" d="M 2419 4116 
L 825 1625 
L 2419 1625 
L 2419 4116 
z
M 2253 4666 
L 3047 4666 
L 3047 1625 
L 3713 1625 
L 3713 1100 
L 3047 1100 
L 3047 0 
L 2419 0 
L 2419 1100 
L 313 1100 
L 313 1709 
L 2253 4666 
z
" transform="scale(0.015625)"/>
       </defs>
       <use xlink:href="#DejaVuSans-34"/>
       <use xlink:href="#DejaVuSans-35" x="63.623047"/>
      </g>
     </g>
    </g>
    <g id="ytick_2">
     <g id="line2d_17">
      <path d="M 48.17125 295.238906 
L 661.97125 295.238906 
" clip-path="url(#p24e0dd588f)" style="fill: none; stroke-dasharray: 2.96,1.28; stroke-dashoffset: 0; stroke: #b0b0b0; stroke-width: 0.8"/>
     </g>
     <g id="line2d_18">
      <g>
       <use xlink:href="#me6497d0dc4" x="48.17125" y="295.238906" style="stroke: #000000; stroke-width: 0.8"/>
      </g>
     </g>
     <g id="text_10">
      <!-- 50 -->
      <g transform="translate(23.35625 300.557813)scale(0.14 -0.14)">
       <use xlink:href="#DejaVuSans-35"/>
       <use xlink:href="#DejaVuSans-30" x="63.623047"/>
      </g>
     </g>
    </g>
    <g id="ytick_3">
     <g id="line2d_19">
      <path d="M 48.17125 258.998906 
L 661.97125 258.998906 
" clip-path="url(#p24e0dd588f)" style="fill: none; stroke-dasharray: 2.96,1.28; stroke-dashoffset: 0; stroke: #b0b0b0; stroke-width: 0.8"/>
     </g>
     <g id="line2d_20">
      <g>
       <use xlink:href="#me6497d0dc4" x="48.17125" y="258.998906" style="stroke: #000000; stroke-width: 0.8"/>
      </g>
     </g>
     <g id="text_11">
      <!-- 55 -->
      <g transform="translate(23.35625 264.317813)scale(0.14 -0.14)">
       <use xlink:href="#DejaVuSans-35"/>
       <use xlink:href="#DejaVuSans-35" x="63.623047"/>
      </g>
     </g>
    </g>
    <g id="ytick_4">
     <g id="line2d_21">
      <path d="M 48.17125 222.758906 
L 661.97125 222.758906 
" clip-path="url(#p24e0dd588f)" style="fill: none; stroke-dasharray: 2.96,1.28; stroke-dashoffset: 0; stroke: #b0b0b0; stroke-width: 0.8"/>
     </g>
     <g id="line2d_22">
      <g>
       <use xlink:href="#me6497d0dc4" x="48.17125" y="222.758906" style="stroke: #000000; stroke-width: 0.8"/>
      </g>
     </g>
     <g id="text_12">
      <!-- 60 -->
      <g transform="translate(23.35625 228.077812)scale(0.14 -0.14)">
       <use xlink:href="#DejaVuSans-36"/>
       <use xlink:href="#DejaVuSans-30" x="63.623047"/>
      </g>
     </g>
    </g>
    <g id="ytick_5">
     <g id="line2d_23">
      <path d="M 48.17125 186.518906 
L 661.97125 186.518906 
" clip-path="url(#p24e0dd588f)" style="fill: none; stroke-dasharray: 2.96,1.28; stroke-dashoffset: 0; stroke: #b0b0b0; stroke-width: 0.8"/>
     </g>
     <g id="line2d_24">
      <g>
       <use xlink:href="#me6497d0dc4" x="48.17125" y="186.518906" style="stroke: #000000; stroke-width: 0.8"/>
      </g>
     </g>
     <g id="text_13">
      <!-- 65 -->
      <g transform="translate(23.35625 191.837812)scale(0.14 -0.14)">
       <use xlink:href="#DejaVuSans-36"/>
       <use xlink:href="#DejaVuSans-35" x="63.623047"/>
      </g>
     </g>
    </g>
    <g id="ytick_6">
     <g id="line2d_25">
      <path d="M 48.17125 150.278906 
L 661.97125 150.278906 
" clip-path="url(#p24e0dd588f)" style="fill: none; stroke-dasharray: 2.96,1.28; stroke-dashoffset: 0; stroke: #b0b0b0; stroke-width: 0.8"/>
     </g>
     <g id="line2d_26">
      <g>
       <use xlink:href="#me6497d0dc4" x="48.17125" y="150.278906" style="stroke: #000000; stroke-width: 0.8"/>
      </g>
     </g>
     <g id="text_14">
      <!-- 70 -->
      <g transform="translate(23.35625 155.597812)scale(0.14 -0.14)">
       <use xlink:href="#DejaVuSans-37"/>
       <use xlink:href="#DejaVuSans-30" x="63.623047"/>
      </g>
     </g>
    </g>
    <g id="ytick_7">
     <g id="line2d_27">
      <path d="M 48.17125 114.038906 
L 661.97125 114.038906 
" clip-path="url(#p24e0dd588f)" style="fill: none; stroke-dasharray: 2.96,1.28; stroke-dashoffset: 0; stroke: #b0b0b0; stroke-width: 0.8"/>
     </g>
     <g id="line2d_28">
      <g>
       <use xlink:href="#me6497d0dc4" x="48.17125" y="114.038906" style="stroke: #000000; stroke-width: 0.8"/>
      </g>
     </g>
     <g id="text_15">
      <!-- 75 -->
      <g transform="translate(23.35625 119.357812)scale(0.14 -0.14)">
       <use xlink:href="#DejaVuSans-37"/>
       <use xlink:href="#DejaVuSans-35" x="63.623047"/>
      </g>
     </g>
    </g>
    <g id="ytick_8">
     <g id="line2d_29">
      <path d="M 48.17125 77.798906 
L 661.97125 77.798906 
" clip-path="url(#p24e0dd588f)" style="fill: none; stroke-dasharray: 2.96,1.28; stroke-dashoffset: 0; stroke: #b0b0b0; stroke-width: 0.8"/>
     </g>
     <g id="line2d_30">
      <g>
       <use xlink:href="#me6497d0dc4" x="48.17125" y="77.798906" style="stroke: #000000; stroke-width: 0.8"/>
      </g>
     </g>
     <g id="text_16">
      <!-- 80 -->
      <g transform="translate(23.35625 83.117812)scale(0.14 -0.14)">
       <use xlink:href="#DejaVuSans-38"/>
       <use xlink:href="#DejaVuSans-30" x="63.623047"/>
      </g>
     </g>
    </g>
    <g id="ytick_9">
     <g id="line2d_31">
      <path d="M 48.17125 41.558906 
L 661.97125 41.558906 
" clip-path="url(#p24e0dd588f)" style="fill: none; stroke-dasharray: 2.96,1.28; stroke-dashoffset: 0; stroke: #b0b0b0; stroke-width: 0.8"/>
     </g>
     <g id="line2d_32">
      <g>
       <use xlink:href="#me6497d0dc4" x="48.17125" y="41.558906" style="stroke: #000000; stroke-width: 0.8"/>
      </g>
     </g>
     <g id="text_17">
      <!-- 85 -->
      <g transform="translate(23.35625 46.877813)scale(0.14 -0.14)">
       <use xlink:href="#DejaVuSans-38"/>
       <use xlink:href="#DejaVuSans-35" x="63.623047"/>
      </g>
     </g>
    </g>
    <g id="ytick_10">
     <g id="line2d_33">
      <path d="M 48.17125 5.318906 
L 661.97125 5.318906 
" clip-path="url(#p24e0dd588f)" style="fill: none; stroke-dasharray: 2.96,1.28; stroke-dashoffset: 0; stroke: #b0b0b0; stroke-width: 0.8"/>
     </g>
     <g id="line2d_34">
      <g>
       <use xlink:href="#me6497d0dc4" x="48.17125" y="5.318906" style="stroke: #000000; stroke-width: 0.8"/>
      </g>
     </g>
     <g id="text_18">
      <!-- 90 -->
      <g transform="translate(23.35625 10.637812)scale(0.14 -0.14)">
       <use xlink:href="#DejaVuSans-39"/>
       <use xlink:href="#DejaVuSans-30" x="63.623047"/>
      </g>
     </g>
    </g>
    <g id="text_19">
     <!-- Robustness -->
     <g transform="translate(15.196875 225.741094)rotate(-90)scale(0.2 -0.2)">
      <defs>
       <path id="DejaVuSans-52" d="M 2841 2188 
Q 3044 2119 3236 1894 
Q 3428 1669 3622 1275 
L 4263 0 
L 3584 0 
L 2988 1197 
Q 2756 1666 2539 1819 
Q 2322 1972 1947 1972 
L 1259 1972 
L 1259 0 
L 628 0 
L 628 4666 
L 2053 4666 
Q 2853 4666 3247 4331 
Q 3641 3997 3641 3322 
Q 3641 2881 3436 2590 
Q 3231 2300 2841 2188 
z
M 1259 4147 
L 1259 2491 
L 2053 2491 
Q 2509 2491 2742 2702 
Q 2975 2913 2975 3322 
Q 2975 3731 2742 3939 
Q 2509 4147 2053 4147 
L 1259 4147 
z
" transform="scale(0.015625)"/>
       <path id="DejaVuSans-62" d="M 3116 1747 
Q 3116 2381 2855 2742 
Q 2594 3103 2138 3103 
Q 1681 3103 1420 2742 
Q 1159 2381 1159 1747 
Q 1159 1113 1420 752 
Q 1681 391 2138 391 
Q 2594 391 2855 752 
Q 3116 1113 3116 1747 
z
M 1159 2969 
Q 1341 3281 1617 3432 
Q 1894 3584 2278 3584 
Q 2916 3584 3314 3078 
Q 3713 2572 3713 1747 
Q 3713 922 3314 415 
Q 2916 -91 2278 -91 
Q 1894 -91 1617 61 
Q 1341 213 1159 525 
L 1159 0 
L 581 0 
L 581 4863 
L 1159 4863 
L 1159 2969 
z
" transform="scale(0.015625)"/>
       <path id="DejaVuSans-75" d="M 544 1381 
L 544 3500 
L 1119 3500 
L 1119 1403 
Q 1119 906 1312 657 
Q 1506 409 1894 409 
Q 2359 409 2629 706 
Q 2900 1003 2900 1516 
L 2900 3500 
L 3475 3500 
L 3475 0 
L 2900 0 
L 2900 538 
Q 2691 219 2414 64 
Q 2138 -91 1772 -91 
Q 1169 -91 856 284 
Q 544 659 544 1381 
z
M 1991 3584 
L 1991 3584 
z
" transform="scale(0.015625)"/>
       <path id="DejaVuSans-73" d="M 2834 3397 
L 2834 2853 
Q 2591 2978 2328 3040 
Q 2066 3103 1784 3103 
Q 1356 3103 1142 2972 
Q 928 2841 928 2578 
Q 928 2378 1081 2264 
Q 1234 2150 1697 2047 
L 1894 2003 
Q 2506 1872 2764 1633 
Q 3022 1394 3022 966 
Q 3022 478 2636 193 
Q 2250 -91 1575 -91 
Q 1294 -91 989 -36 
Q 684 19 347 128 
L 347 722 
Q 666 556 975 473 
Q 1284 391 1588 391 
Q 1994 391 2212 530 
Q 2431 669 2431 922 
Q 2431 1156 2273 1281 
Q 2116 1406 1581 1522 
L 1381 1569 
Q 847 1681 609 1914 
Q 372 2147 372 2553 
Q 372 3047 722 3315 
Q 1072 3584 1716 3584 
Q 2034 3584 2315 3537 
Q 2597 3491 2834 3397 
z
" transform="scale(0.015625)"/>
      </defs>
      <use xlink:href="#DejaVuSans-52"/>
      <use xlink:href="#DejaVuSans-6f" x="64.982422"/>
      <use xlink:href="#DejaVuSans-62" x="126.164062"/>
      <use xlink:href="#DejaVuSans-75" x="189.640625"/>
      <use xlink:href="#DejaVuSans-73" x="253.019531"/>
      <use xlink:href="#DejaVuSans-74" x="305.119141"/>
      <use xlink:href="#DejaVuSans-6e" x="344.328125"/>
      <use xlink:href="#DejaVuSans-65" x="407.707031"/>
      <use xlink:href="#DejaVuSans-73" x="469.230469"/>
      <use xlink:href="#DejaVuSans-73" x="521.330078"/>
     </g>
    </g>
   </g>
   <g id="PathCollection_1">
    <defs>
     <path id="m62f9b5d542" d="M 0 26.814408 
C 7.111264 26.814408 13.932227 23.989073 18.96065 18.96065 
C 23.989073 13.932227 26.814408 7.111264 26.814408 0 
C 26.814408 -7.111264 23.989073 -13.932227 18.96065 -18.96065 
C 13.932227 -23.989073 7.111264 -26.814408 0 -26.814408 
C -7.111264 -26.814408 -13.932227 -23.989073 -18.96065 -18.96065 
C -23.989073 -13.932227 -26.814408 -7.111264 -26.814408 0 
C -26.814408 7.111264 -23.989073 13.932227 -18.96065 18.96065 
C -13.932227 23.989073 -7.111264 26.814408 0 26.814408 
z
" style="stroke: #ffffff; stroke-width: 2"/>
    </defs>
    <g clip-path="url(#p24e0dd588f)">
     <use xlink:href="#m62f9b5d542" x="200.005987" y="216.235706" style="fill: #1f77b4; stroke: #ffffff; stroke-width: 2"/>
    </g>
   </g>
   <g id="PathCollection_2">
    <defs>
     <path id="m75b1dd0aae" d="M 0 24.996558 
C 6.629165 24.996558 12.987708 22.362763 17.675236 17.675236 
C 22.362763 12.987708 24.996558 6.629165 24.996558 0 
C 24.996558 -6.629165 22.362763 -12.987708 17.675236 -17.675236 
C 12.987708 -22.362763 6.629165 -24.996558 0 -24.996558 
C -6.629165 -24.996558 -12.987708 -22.362763 -17.675236 -17.675236 
C -22.362763 -12.987708 -24.996558 -6.629165 -24.996558 0 
C -24.996558 6.629165 -22.362763 12.987708 -17.675236 17.675236 
C -12.987708 22.362763 -6.629165 24.996558 0 24.996558 
z
" style="stroke: #ffffff; stroke-width: 2"/>
    </defs>
    <g clip-path="url(#p24e0dd588f)">
     <use xlink:href="#m75b1dd0aae" x="274.308092" y="217.685306" style="fill: #ff7f0e; stroke: #ffffff; stroke-width: 2"/>
    </g>
   </g>
   <g id="PathCollection_3">
    <defs>
     <path id="m6085e0f35d" d="M 0 26.814408 
C 7.111264 26.814408 13.932227 23.989073 18.96065 18.96065 
C 23.989073 13.932227 26.814408 7.111264 26.814408 0 
C 26.814408 -7.111264 23.989073 -13.932227 18.96065 -18.96065 
C 13.932227 -23.989073 7.111264 -26.814408 0 -26.814408 
C -7.111264 -26.814408 -13.932227 -23.989073 -18.96065 -18.96065 
C -23.989073 -13.932227 -26.814408 -7.111264 -26.814408 0 
C -26.814408 7.111264 -23.989073 13.932227 -18.96065 18.96065 
C -13.932227 23.989073 -7.111264 26.814408 0 26.814408 
z
" style="stroke: #ffffff; stroke-width: 2"/>
    </defs>
    <g clip-path="url(#p24e0dd588f)">
     <use xlink:href="#m6085e0f35d" x="259.770724" y="164.050106" style="fill: #2ca02c; stroke: #ffffff; stroke-width: 2"/>
    </g>
   </g>
   <g id="PathCollection_4">
    <defs>
     <path id="me73920d77b" d="M 0 26.814408 
C 7.111264 26.814408 13.932227 23.989073 18.96065 18.96065 
C 23.989073 13.932227 26.814408 7.111264 26.814408 0 
C 26.814408 -7.111264 23.989073 -13.932227 18.96065 -18.96065 
C 13.932227 -23.989073 7.111264 -26.814408 0 -26.814408 
C -7.111264 -26.814408 -13.932227 -23.989073 -18.96065 -18.96065 
C -23.989073 -13.932227 -26.814408 -7.111264 -26.814408 0 
C -26.814408 7.111264 -23.989073 13.932227 -18.96065 18.96065 
C -13.932227 23.989073 -7.111264 26.814408 0 26.814408 
z
" style="stroke: #ffffff; stroke-width: 2"/>
    </defs>
    <g clip-path="url(#p24e0dd588f)">
     <use xlink:href="#me73920d77b" x="271.077566" y="261.898106" style="fill: #9467bd; stroke: #ffffff; stroke-width: 2"/>
    </g>
   </g>
   <g id="PathCollection_5">
    <defs>
     <path id="me736944126" d="M 0 22.596798 
C 5.992741 22.596798 11.740842 20.215857 15.978349 15.978349 
C 20.215857 11.740842 22.596798 5.992741 22.596798 0 
C 22.596798 -5.992741 20.215857 -11.740842 15.978349 -15.978349 
C 11.740842 -20.215857 5.992741 -22.596798 0 -22.596798 
C -5.992741 -22.596798 -11.740842 -20.215857 -15.978349 -15.978349 
C -20.215857 -11.740842 -22.596798 -5.992741 -22.596798 0 
C -22.596798 5.992741 -20.215857 11.740842 -15.978349 15.978349 
C -11.740842 20.215857 -5.992741 22.596798 0 22.596798 
z
" style="stroke: #ffffff; stroke-width: 2"/>
    </defs>
    <g clip-path="url(#p24e0dd588f)">
     <use xlink:href="#me736944126" x="463.293882" y="166.224506" style="fill: #8c564b; stroke: #ffffff; stroke-width: 2"/>
    </g>
   </g>
   <g id="PathCollection_6">
    <defs>
     <path id="m689f8159ee" d="M 0 18.047106 
C 4.786149 18.047106 9.376913 16.145549 12.761231 12.761231 
C 16.145549 9.376913 18.047106 4.786149 18.047106 0 
C 18.047106 -4.786149 16.145549 -9.376913 12.761231 -12.761231 
C 9.376913 -16.145549 4.786149 -18.047106 0 -18.047106 
C -4.786149 -18.047106 -9.376913 -16.145549 -12.761231 -12.761231 
C -16.145549 -9.376913 -18.047106 -4.786149 -18.047106 0 
C -18.047106 4.786149 -16.145549 9.376913 -12.761231 12.761231 
C -9.376913 16.145549 -4.786149 18.047106 0 18.047106 
z
" style="stroke: #ffffff; stroke-width: 2"/>
    </defs>
    <g clip-path="url(#p24e0dd588f)">
     <use xlink:href="#m689f8159ee" x="232.31125" y="296.688506" style="fill: #e377c2; stroke: #ffffff; stroke-width: 2"/>
    </g>
   </g>
   <g id="PathCollection_7">
    <defs>
     <path id="m020bbfc08d" d="M 0 26.814408 
C 7.111264 26.814408 13.932227 23.989073 18.96065 18.96065 
C 23.989073 13.932227 26.814408 7.111264 26.814408 0 
C 26.814408 -7.111264 23.989073 -13.932227 18.96065 -18.96065 
C 13.932227 -23.989073 7.111264 -26.814408 0 -26.814408 
C -7.111264 -26.814408 -13.932227 -23.989073 -18.96065 -18.96065 
C -23.989073 -13.932227 -26.814408 -7.111264 -26.814408 0 
C -26.814408 7.111264 -23.989073 13.932227 -18.96065 18.96065 
C -13.932227 23.989073 -7.111264 26.814408 0 26.814408 
z
" style="stroke: #ffffff; stroke-width: 2"/>
    </defs>
    <g clip-path="url(#p24e0dd588f)">
     <use xlink:href="#m020bbfc08d" x="493.983882" y="151.728506" style="fill: #17becf; stroke: #ffffff; stroke-width: 2"/>
    </g>
   </g>
   <g id="PathCollection_8">
    <defs>
     <path id="m95e8da1e7b" d="M 0 15.641957 
C 4.148296 15.641957 8.127246 13.993822 11.060534 11.060534 
C 13.993822 8.127246 15.641957 4.148296 15.641957 0 
C 15.641957 -4.148296 13.993822 -8.127246 11.060534 -11.060534 
C 8.127246 -13.993822 4.148296 -15.641957 0 -15.641957 
C -4.148296 -15.641957 -8.127246 -13.993822 -11.060534 -11.060534 
C -13.993822 -8.127246 -15.641957 -4.148296 -15.641957 0 
C -15.641957 4.148296 -13.993822 8.127246 -11.060534 11.060534 
C -8.127246 13.993822 -4.148296 15.641957 0 15.641957 
z
" style="stroke: #ffffff; stroke-width: 2"/>
    </defs>
    <g clip-path="url(#p24e0dd588f)">
     <use xlink:href="#m95e8da1e7b" x="151.548092" y="298.138106" style="fill: #bcbd22; stroke: #ffffff; stroke-width: 2"/>
    </g>
   </g>
   <g id="PathCollection_9">
    <defs>
     <path id="m2d2e471b4b" d="M 0 18.047106 
C 4.786149 18.047106 9.376913 16.145549 12.761231 12.761231 
C 16.145549 9.376913 18.047106 4.786149 18.047106 0 
C 18.047106 -4.786149 16.145549 -9.376913 12.761231 -12.761231 
C 9.376913 -16.145549 4.786149 -18.047106 0 -18.047106 
C -4.786149 -18.047106 -9.376913 -16.145549 -12.761231 -12.761231 
C -16.145549 -9.376913 -18.047106 -4.786149 -18.047106 0 
C -18.047106 4.786149 -16.145549 9.376913 -12.761231 12.761231 
C -9.376913 16.145549 -4.786149 18.047106 0 18.047106 
z
" style="stroke: #ffffff; stroke-width: 2"/>
    </defs>
    <g clip-path="url(#p24e0dd588f)">
     <use xlink:href="#m2d2e471b4b" x="319.535461" y="283.642106" style="fill: #1f00b4; stroke: #ffffff; stroke-width: 2"/>
    </g>
   </g>
   <g id="PathCollection_10">
    <defs>
     <path id="me81fce0cb2" d="M 0 3.354102 
C 0.889518 3.354102 1.742724 3.000693 2.371708 2.371708 
C 3.000693 1.742724 3.354102 0.889518 3.354102 0 
C 3.354102 -0.889518 3.000693 -1.742724 2.371708 -2.371708 
C 1.742724 -3.000693 0.889518 -3.354102 0 -3.354102 
C -0.889518 -3.354102 -1.742724 -3.000693 -2.371708 -2.371708 
C -3.000693 -1.742724 -3.354102 -0.889518 -3.354102 0 
C -3.354102 0.889518 -3.000693 1.742724 -2.371708 2.371708 
C -1.742724 3.000693 -0.889518 3.354102 0 3.354102 
z
" style="stroke: #ffffff; stroke-width: 2"/>
    </defs>
    <g clip-path="url(#p24e0dd588f)">
     <use xlink:href="#me81fce0cb2" x="401.913882" y="148.829306" style="fill: #d62728; stroke: #ffffff; stroke-width: 2"/>
    </g>
   </g>
   <g id="PathCollection_11">
    <defs>
     <path id="m62e02d65df" d="M 0 4.399834 
C 1.16685 4.399834 2.286065 3.93624 3.111153 3.111153 
C 3.93624 2.286065 4.399834 1.16685 4.399834 0 
C 4.399834 -1.16685 3.93624 -2.286065 3.111153 -3.111153 
C 2.286065 -3.93624 1.16685 -4.399834 0 -4.399834 
C -1.16685 -4.399834 -2.286065 -3.93624 -3.111153 -3.111153 
C -3.93624 -2.286065 -4.399834 -1.16685 -4.399834 0 
C -4.399834 1.16685 -3.93624 2.286065 -3.111153 3.111153 
C -2.286065 3.93624 -1.16685 4.399834 0 4.399834 
z
" style="stroke: #ffffff; stroke-width: 2"/>
    </defs>
    <g clip-path="url(#p24e0dd588f)">
     <use xlink:href="#m62e02d65df" x="513.367039" y="83.597306" style="fill: #d62728; stroke: #ffffff; stroke-width: 2"/>
    </g>
   </g>
   <g id="PathCollection_12">
    <defs>
     <path id="m50eeebef6b" d="M 0 6.708204 
C 1.779036 6.708204 3.485448 6.001385 4.743416 4.743416 
C 6.001385 3.485448 6.708204 1.779036 6.708204 0 
C 6.708204 -1.779036 6.001385 -3.485448 4.743416 -4.743416 
C 3.485448 -6.001385 1.779036 -6.708204 0 -6.708204 
C -1.779036 -6.708204 -3.485448 -6.001385 -4.743416 -4.743416 
C -6.001385 -3.485448 -6.708204 -1.779036 -6.708204 0 
C -6.708204 1.779036 -6.001385 3.485448 -4.743416 4.743416 
C -3.485448 6.001385 -1.779036 6.708204 0 6.708204 
z
" style="stroke: #ffffff; stroke-width: 2"/>
    </defs>
    <g clip-path="url(#p24e0dd588f)">
     <use xlink:href="#m50eeebef6b" x="555.363882" y="62.578106" style="fill: #d62728; stroke: #ffffff; stroke-width: 2"/>
    </g>
   </g>
   <g id="PathCollection_13">
    <defs>
     <path id="m1b4c6eef8e" d="M 0 11.228776 
C 2.977906 11.228776 5.834246 10.045641 7.939944 7.939944 
C 10.045641 5.834246 11.228776 2.977906 11.228776 0 
C 11.228776 -2.977906 10.045641 -5.834246 7.939944 -7.939944 
C 5.834246 -10.045641 2.977906 -11.228776 0 -11.228776 
C -2.977906 -11.228776 -5.834246 -10.045641 -7.939944 -7.939944 
C -10.045641 -5.834246 -11.228776 -2.977906 -11.228776 0 
C -11.228776 2.977906 -10.045641 5.834246 -7.939944 7.939944 
C -5.834246 10.045641 -2.977906 11.228776 0 11.228776 
z
" style="stroke: #ffffff; stroke-width: 2"/>
    </defs>
    <g clip-path="url(#p24e0dd588f)">
     <use xlink:href="#m1b4c6eef8e" x="592.514934" y="48.082106" style="fill: #d62728; stroke: #ffffff; stroke-width: 2"/>
    </g>
   </g>
   <g id="patch_3">
    <path d="M 48.17125 331.478906 
L 48.17125 5.318906 
" style="fill: none; stroke: #000000; stroke-width: 0.8; stroke-linejoin: miter; stroke-linecap: square"/>
   </g>
   <g id="patch_4">
    <path d="M 661.97125 331.478906 
L 661.97125 5.318906 
" style="fill: none; stroke: #000000; stroke-width: 0.8; stroke-linejoin: miter; stroke-linecap: square"/>
   </g>
   <g id="patch_5">
    <path d="M 48.17125 331.478906 
L 661.97125 331.478906 
" style="fill: none; stroke: #000000; stroke-width: 0.8; stroke-linejoin: miter; stroke-linecap: square"/>
   </g>
   <g id="patch_6">
    <path d="M 48.17125 5.318906 
L 661.97125 5.318906 
" style="fill: none; stroke: #000000; stroke-width: 0.8; stroke-linejoin: miter; stroke-linecap: square"/>
   </g>
   <g id="legend_1">
    <g id="patch_7">
     <path d="M 677.37125 333.158281 
L 997.151563 333.158281 
Q 1001.551563 333.158281 1001.551563 328.758281 
L 1001.551563 8.039531 
Q 1001.551563 3.639531 997.151563 3.639531 
L 677.37125 3.639531 
Q 672.97125 3.639531 672.97125 8.039531 
L 672.97125 328.758281 
Q 672.97125 333.158281 677.37125 333.158281 
z
" style="fill: #ffffff; opacity: 0.8; stroke: #cccccc; stroke-linejoin: miter"/>
    </g>
    <g id="PathCollection_14">
     <defs>
      <path id="m0a0151dc44" d="M 0 7.071068 
C 1.875269 7.071068 3.673985 6.326016 5 5 
C 6.326016 3.673985 7.071068 1.875269 7.071068 0 
C 7.071068 -1.875269 6.326016 -3.673985 5 -5 
C 3.673985 -6.326016 1.875269 -7.071068 0 -7.071068 
C -1.875269 -7.071068 -3.673985 -6.326016 -5 -5 
C -6.326016 -3.673985 -7.071068 -1.875269 -7.071068 0 
C -7.071068 1.875269 -6.326016 3.673985 -5 5 
C -3.673985 6.326016 -1.875269 7.071068 0 7.071068 
z
" style="stroke: #ffffff; stroke-width: 2"/>
     </defs>
     <g>
      <use xlink:href="#m0a0151dc44" x="703.77125" y="23.381094" style="fill: #1f77b4; stroke: #ffffff; stroke-width: 2"/>
     </g>
    </g>
    <g id="text_20">
     <!-- Wang et al. [CVPR2020] -->
     <g transform="translate(714.77125 29.156094)scale(0.22 -0.22)">
      <defs>
       <path id="DejaVuSans-57" d="M 213 4666 
L 850 4666 
L 1831 722 
L 2809 4666 
L 3519 4666 
L 4500 722 
L 5478 4666 
L 6119 4666 
L 4947 0 
L 4153 0 
L 3169 4050 
L 2175 0 
L 1381 0 
L 213 4666 
z
" transform="scale(0.015625)"/>
       <path id="DejaVuSans-67" d="M 2906 1791 
Q 2906 2416 2648 2759 
Q 2391 3103 1925 3103 
Q 1463 3103 1205 2759 
Q 947 2416 947 1791 
Q 947 1169 1205 825 
Q 1463 481 1925 481 
Q 2391 481 2648 825 
Q 2906 1169 2906 1791 
z
M 3481 434 
Q 3481 -459 3084 -895 
Q 2688 -1331 1869 -1331 
Q 1566 -1331 1297 -1286 
Q 1028 -1241 775 -1147 
L 775 -588 
Q 1028 -725 1275 -790 
Q 1522 -856 1778 -856 
Q 2344 -856 2625 -561 
Q 2906 -266 2906 331 
L 2906 616 
Q 2728 306 2450 153 
Q 2172 0 1784 0 
Q 1141 0 747 490 
Q 353 981 353 1791 
Q 353 2603 747 3093 
Q 1141 3584 1784 3584 
Q 2172 3584 2450 3431 
Q 2728 3278 2906 2969 
L 2906 3500 
L 3481 3500 
L 3481 434 
z
" transform="scale(0.015625)"/>
       <path id="DejaVuSans-20" transform="scale(0.015625)"/>
       <path id="DejaVuSans-2e" d="M 684 794 
L 1344 794 
L 1344 0 
L 684 0 
L 684 794 
z
" transform="scale(0.015625)"/>
       <path id="DejaVuSans-5b" d="M 550 4863 
L 1875 4863 
L 1875 4416 
L 1125 4416 
L 1125 -397 
L 1875 -397 
L 1875 -844 
L 550 -844 
L 550 4863 
z
" transform="scale(0.015625)"/>
       <path id="DejaVuSans-43" d="M 4122 4306 
L 4122 3641 
Q 3803 3938 3442 4084 
Q 3081 4231 2675 4231 
Q 1875 4231 1450 3742 
Q 1025 3253 1025 2328 
Q 1025 1406 1450 917 
Q 1875 428 2675 428 
Q 3081 428 3442 575 
Q 3803 722 4122 1019 
L 4122 359 
Q 3791 134 3420 21 
Q 3050 -91 2638 -91 
Q 1578 -91 968 557 
Q 359 1206 359 2328 
Q 359 3453 968 4101 
Q 1578 4750 2638 4750 
Q 3056 4750 3426 4639 
Q 3797 4528 4122 4306 
z
" transform="scale(0.015625)"/>
       <path id="DejaVuSans-56" d="M 1831 0 
L 50 4666 
L 709 4666 
L 2188 738 
L 3669 4666 
L 4325 4666 
L 2547 0 
L 1831 0 
z
" transform="scale(0.015625)"/>
       <path id="DejaVuSans-50" d="M 1259 4147 
L 1259 2394 
L 2053 2394 
Q 2494 2394 2734 2622 
Q 2975 2850 2975 3272 
Q 2975 3691 2734 3919 
Q 2494 4147 2053 4147 
L 1259 4147 
z
M 628 4666 
L 2053 4666 
Q 2838 4666 3239 4311 
Q 3641 3956 3641 3272 
Q 3641 2581 3239 2228 
Q 2838 1875 2053 1875 
L 1259 1875 
L 1259 0 
L 628 0 
L 628 4666 
z
" transform="scale(0.015625)"/>
       <path id="DejaVuSans-32" d="M 1228 531 
L 3431 531 
L 3431 0 
L 469 0 
L 469 531 
Q 828 903 1448 1529 
Q 2069 2156 2228 2338 
Q 2531 2678 2651 2914 
Q 2772 3150 2772 3378 
Q 2772 3750 2511 3984 
Q 2250 4219 1831 4219 
Q 1534 4219 1204 4116 
Q 875 4013 500 3803 
L 500 4441 
Q 881 4594 1212 4672 
Q 1544 4750 1819 4750 
Q 2544 4750 2975 4387 
Q 3406 4025 3406 3419 
Q 3406 3131 3298 2873 
Q 3191 2616 2906 2266 
Q 2828 2175 2409 1742 
Q 1991 1309 1228 531 
z
" transform="scale(0.015625)"/>
       <path id="DejaVuSans-5d" d="M 1947 4863 
L 1947 -844 
L 622 -844 
L 622 -397 
L 1369 -397 
L 1369 4416 
L 622 4416 
L 622 4863 
L 1947 4863 
z
" transform="scale(0.015625)"/>
      </defs>
      <use xlink:href="#DejaVuSans-57"/>
      <use xlink:href="#DejaVuSans-61" x="92.501953"/>
      <use xlink:href="#DejaVuSans-6e" x="153.78125"/>
      <use xlink:href="#DejaVuSans-67" x="217.160156"/>
      <use xlink:href="#DejaVuSans-20" x="280.636719"/>
      <use xlink:href="#DejaVuSans-65" x="312.423828"/>
      <use xlink:href="#DejaVuSans-74" x="373.947266"/>
      <use xlink:href="#DejaVuSans-20" x="413.15625"/>
      <use xlink:href="#DejaVuSans-61" x="444.943359"/>
      <use xlink:href="#DejaVuSans-6c" x="506.222656"/>
      <use xlink:href="#DejaVuSans-2e" x="534.005859"/>
      <use xlink:href="#DejaVuSans-20" x="565.792969"/>
      <use xlink:href="#DejaVuSans-5b" x="597.580078"/>
      <use xlink:href="#DejaVuSans-43" x="636.59375"/>
      <use xlink:href="#DejaVuSans-56" x="706.417969"/>
      <use xlink:href="#DejaVuSans-50" x="774.826172"/>
      <use xlink:href="#DejaVuSans-52" x="835.128906"/>
      <use xlink:href="#DejaVuSans-32" x="904.611328"/>
      <use xlink:href="#DejaVuSans-30" x="968.234375"/>
      <use xlink:href="#DejaVuSans-32" x="1031.857422"/>
      <use xlink:href="#DejaVuSans-30" x="1095.480469"/>
      <use xlink:href="#DejaVuSans-5d" x="1159.103516"/>
     </g>
    </g>
    <g id="PathCollection_15">
     <defs>
      <path id="md9c6ff24c3" d="M 0 7.071068 
C 1.875269 7.071068 3.673985 6.326016 5 5 
C 6.326016 3.673985 7.071068 1.875269 7.071068 0 
C 7.071068 -1.875269 6.326016 -3.673985 5 -5 
C 3.673985 -6.326016 1.875269 -7.071068 0 -7.071068 
C -1.875269 -7.071068 -3.673985 -6.326016 -5 -5 
C -6.326016 -3.673985 -7.071068 -1.875269 -7.071068 0 
C -7.071068 1.875269 -6.326016 3.673985 -5 5 
C -3.673985 6.326016 -1.875269 7.071068 0 7.071068 
z
" style="stroke: #ffffff; stroke-width: 2"/>
     </defs>
     <g>
      <use xlink:href="#md9c6ff24c3" x="703.77125" y="55.672969" style="fill: #ff7f0e; stroke: #ffffff; stroke-width: 2"/>
     </g>
    </g>
    <g id="text_21">
     <!-- PatchFor. [ECCV2020] -->
     <g transform="translate(714.77125 61.447969)scale(0.22 -0.22)">
      <defs>
       <path id="DejaVuSans-63" d="M 3122 3366 
L 3122 2828 
Q 2878 2963 2633 3030 
Q 2388 3097 2138 3097 
Q 1578 3097 1268 2742 
Q 959 2388 959 1747 
Q 959 1106 1268 751 
Q 1578 397 2138 397 
Q 2388 397 2633 464 
Q 2878 531 3122 666 
L 3122 134 
Q 2881 22 2623 -34 
Q 2366 -91 2075 -91 
Q 1284 -91 818 406 
Q 353 903 353 1747 
Q 353 2603 823 3093 
Q 1294 3584 2113 3584 
Q 2378 3584 2631 3529 
Q 2884 3475 3122 3366 
z
" transform="scale(0.015625)"/>
       <path id="DejaVuSans-68" d="M 3513 2113 
L 3513 0 
L 2938 0 
L 2938 2094 
Q 2938 2591 2744 2837 
Q 2550 3084 2163 3084 
Q 1697 3084 1428 2787 
Q 1159 2491 1159 1978 
L 1159 0 
L 581 0 
L 581 4863 
L 1159 4863 
L 1159 2956 
Q 1366 3272 1645 3428 
Q 1925 3584 2291 3584 
Q 2894 3584 3203 3211 
Q 3513 2838 3513 2113 
z
" transform="scale(0.015625)"/>
       <path id="DejaVuSans-46" d="M 628 4666 
L 3309 4666 
L 3309 4134 
L 1259 4134 
L 1259 2759 
L 3109 2759 
L 3109 2228 
L 1259 2228 
L 1259 0 
L 628 0 
L 628 4666 
z
" transform="scale(0.015625)"/>
       <path id="DejaVuSans-45" d="M 628 4666 
L 3578 4666 
L 3578 4134 
L 1259 4134 
L 1259 2753 
L 3481 2753 
L 3481 2222 
L 1259 2222 
L 1259 531 
L 3634 531 
L 3634 0 
L 628 0 
L 628 4666 
z
" transform="scale(0.015625)"/>
      </defs>
      <use xlink:href="#DejaVuSans-50"/>
      <use xlink:href="#DejaVuSans-61" x="55.802734"/>
      <use xlink:href="#DejaVuSans-74" x="117.082031"/>
      <use xlink:href="#DejaVuSans-63" x="156.291016"/>
      <use xlink:href="#DejaVuSans-68" x="211.271484"/>
      <use xlink:href="#DejaVuSans-46" x="274.650391"/>
      <use xlink:href="#DejaVuSans-6f" x="328.544922"/>
      <use xlink:href="#DejaVuSans-72" x="389.726562"/>
      <use xlink:href="#DejaVuSans-2e" x="421.714844"/>
      <use xlink:href="#DejaVuSans-20" x="453.501953"/>
      <use xlink:href="#DejaVuSans-5b" x="485.289062"/>
      <use xlink:href="#DejaVuSans-45" x="524.302734"/>
      <use xlink:href="#DejaVuSans-43" x="587.486328"/>
      <use xlink:href="#DejaVuSans-43" x="657.310547"/>
      <use xlink:href="#DejaVuSans-56" x="727.134766"/>
      <use xlink:href="#DejaVuSans-32" x="795.542969"/>
      <use xlink:href="#DejaVuSans-30" x="859.166016"/>
      <use xlink:href="#DejaVuSans-32" x="922.789062"/>
      <use xlink:href="#DejaVuSans-30" x="986.412109"/>
      <use xlink:href="#DejaVuSans-5d" x="1050.035156"/>
     </g>
    </g>
    <g id="PathCollection_16">
     <defs>
      <path id="mf3b436f2c4" d="M 0 7.071068 
C 1.875269 7.071068 3.673985 6.326016 5 5 
C 6.326016 3.673985 7.071068 1.875269 7.071068 0 
C 7.071068 -1.875269 6.326016 -3.673985 5 -5 
C 3.673985 -6.326016 1.875269 -7.071068 0 -7.071068 
C -1.875269 -7.071068 -3.673985 -6.326016 -5 -5 
C -6.326016 -3.673985 -7.071068 -1.875269 -7.071068 0 
C -7.071068 1.875269 -6.326016 3.673985 -5 5 
C -3.673985 6.326016 -1.875269 7.071068 0 7.071068 
z
" style="stroke: #ffffff; stroke-width: 2"/>
     </defs>
     <g>
      <use xlink:href="#mf3b436f2c4" x="703.77125" y="87.964844" style="fill: #2ca02c; stroke: #ffffff; stroke-width: 2"/>
     </g>
    </g>
    <g id="text_22">
     <!-- Gragn. et al. [ICME2021] -->
     <g transform="translate(714.77125 93.739844)scale(0.22 -0.22)">
      <defs>
       <path id="DejaVuSans-49" d="M 628 4666 
L 1259 4666 
L 1259 0 
L 628 0 
L 628 4666 
z
" transform="scale(0.015625)"/>
       <path id="DejaVuSans-4d" d="M 628 4666 
L 1569 4666 
L 2759 1491 
L 3956 4666 
L 4897 4666 
L 4897 0 
L 4281 0 
L 4281 4097 
L 3078 897 
L 2444 897 
L 1241 4097 
L 1241 0 
L 628 0 
L 628 4666 
z
" transform="scale(0.015625)"/>
       <path id="DejaVuSans-31" d="M 794 531 
L 1825 531 
L 1825 4091 
L 703 3866 
L 703 4441 
L 1819 4666 
L 2450 4666 
L 2450 531 
L 3481 531 
L 3481 0 
L 794 0 
L 794 531 
z
" transform="scale(0.015625)"/>
      </defs>
      <use xlink:href="#DejaVuSans-47"/>
      <use xlink:href="#DejaVuSans-72" x="77.490234"/>
      <use xlink:href="#DejaVuSans-61" x="118.603516"/>
      <use xlink:href="#DejaVuSans-67" x="179.882812"/>
      <use xlink:href="#DejaVuSans-6e" x="243.359375"/>
      <use xlink:href="#DejaVuSans-2e" x="306.738281"/>
      <use xlink:href="#DejaVuSans-20" x="338.525391"/>
      <use xlink:href="#DejaVuSans-65" x="370.3125"/>
      <use xlink:href="#DejaVuSans-74" x="431.835938"/>
      <use xlink:href="#DejaVuSans-20" x="471.044922"/>
      <use xlink:href="#DejaVuSans-61" x="502.832031"/>
      <use xlink:href="#DejaVuSans-6c" x="564.111328"/>
      <use xlink:href="#DejaVuSans-2e" x="591.894531"/>
      <use xlink:href="#DejaVuSans-20" x="623.681641"/>
      <use xlink:href="#DejaVuSans-5b" x="655.46875"/>
      <use xlink:href="#DejaVuSans-49" x="694.482422"/>
      <use xlink:href="#DejaVuSans-43" x="723.974609"/>
      <use xlink:href="#DejaVuSans-4d" x="793.798828"/>
      <use xlink:href="#DejaVuSans-45" x="880.078125"/>
      <use xlink:href="#DejaVuSans-32" x="943.261719"/>
      <use xlink:href="#DejaVuSans-30" x="1006.884766"/>
      <use xlink:href="#DejaVuSans-32" x="1070.507812"/>
      <use xlink:href="#DejaVuSans-31" x="1134.130859"/>
      <use xlink:href="#DejaVuSans-5d" x="1197.753906"/>
     </g>
    </g>
    <g id="PathCollection_17">
     <defs>
      <path id="m2bf2bf16b0" d="M 0 7.071068 
C 1.875269 7.071068 3.673985 6.326016 5 5 
C 6.326016 3.673985 7.071068 1.875269 7.071068 0 
C 7.071068 -1.875269 6.326016 -3.673985 5 -5 
C 3.673985 -6.326016 1.875269 -7.071068 0 -7.071068 
C -1.875269 -7.071068 -3.673985 -6.326016 -5 -5 
C -6.326016 -3.673985 -7.071068 -1.875269 -7.071068 0 
C -7.071068 1.875269 -6.326016 3.673985 -5 5 
C -3.673985 6.326016 -1.875269 7.071068 0 7.071068 
z
" style="stroke: #ffffff; stroke-width: 2"/>
     </defs>
     <g>
      <use xlink:href="#m2bf2bf16b0" x="703.77125" y="120.256719" style="fill: #9467bd; stroke: #ffffff; stroke-width: 2"/>
     </g>
    </g>
    <g id="text_23">
     <!-- Liu et al. [ECCV2022] -->
     <g transform="translate(714.77125 126.031719)scale(0.22 -0.22)">
      <defs>
       <path id="DejaVuSans-4c" d="M 628 4666 
L 1259 4666 
L 1259 531 
L 3531 531 
L 3531 0 
L 628 0 
L 628 4666 
z
" transform="scale(0.015625)"/>
      </defs>
      <use xlink:href="#DejaVuSans-4c"/>
      <use xlink:href="#DejaVuSans-69" x="55.712891"/>
      <use xlink:href="#DejaVuSans-75" x="83.496094"/>
      <use xlink:href="#DejaVuSans-20" x="146.875"/>
      <use xlink:href="#DejaVuSans-65" x="178.662109"/>
      <use xlink:href="#DejaVuSans-74" x="240.185547"/>
      <use xlink:href="#DejaVuSans-20" x="279.394531"/>
      <use xlink:href="#DejaVuSans-61" x="311.181641"/>
      <use xlink:href="#DejaVuSans-6c" x="372.460938"/>
      <use xlink:href="#DejaVuSans-2e" x="400.244141"/>
      <use xlink:href="#DejaVuSans-20" x="432.03125"/>
      <use xlink:href="#DejaVuSans-5b" x="463.818359"/>
      <use xlink:href="#DejaVuSans-45" x="502.832031"/>
      <use xlink:href="#DejaVuSans-43" x="566.015625"/>
      <use xlink:href="#DejaVuSans-43" x="635.839844"/>
      <use xlink:href="#DejaVuSans-56" x="705.664062"/>
      <use xlink:href="#DejaVuSans-32" x="774.072266"/>
      <use xlink:href="#DejaVuSans-30" x="837.695312"/>
      <use xlink:href="#DejaVuSans-32" x="901.318359"/>
      <use xlink:href="#DejaVuSans-32" x="964.941406"/>
      <use xlink:href="#DejaVuSans-5d" x="1028.564453"/>
     </g>
    </g>
    <g id="PathCollection_18">
     <defs>
      <path id="m9ed08dd6a4" d="M 0 7.071068 
C 1.875269 7.071068 3.673985 6.326016 5 5 
C 6.326016 3.673985 7.071068 1.875269 7.071068 0 
C 7.071068 -1.875269 6.326016 -3.673985 5 -5 
C 3.673985 -6.326016 1.875269 -7.071068 0 -7.071068 
C -1.875269 -7.071068 -3.673985 -6.326016 -5 -5 
C -6.326016 -3.673985 -7.071068 -1.875269 -7.071068 0 
C -7.071068 1.875269 -6.326016 3.673985 -5 5 
C -3.673985 6.326016 -1.875269 7.071068 0 7.071068 
z
" style="stroke: #ffffff; stroke-width: 2"/>
     </defs>
     <g>
      <use xlink:href="#m9ed08dd6a4" x="703.77125" y="152.548594" style="fill: #8c564b; stroke: #ffffff; stroke-width: 2"/>
     </g>
    </g>
    <g id="text_24">
     <!-- Corvi et al. [ICASSP2023] -->
     <g transform="translate(714.77125 158.323594)scale(0.22 -0.22)">
      <defs>
       <path id="DejaVuSans-76" d="M 191 3500 
L 800 3500 
L 1894 563 
L 2988 3500 
L 3597 3500 
L 2284 0 
L 1503 0 
L 191 3500 
z
" transform="scale(0.015625)"/>
       <path id="DejaVuSans-41" d="M 2188 4044 
L 1331 1722 
L 3047 1722 
L 2188 4044 
z
M 1831 4666 
L 2547 4666 
L 4325 0 
L 3669 0 
L 3244 1197 
L 1141 1197 
L 716 0 
L 50 0 
L 1831 4666 
z
" transform="scale(0.015625)"/>
       <path id="DejaVuSans-53" d="M 3425 4513 
L 3425 3897 
Q 3066 4069 2747 4153 
Q 2428 4238 2131 4238 
Q 1616 4238 1336 4038 
Q 1056 3838 1056 3469 
Q 1056 3159 1242 3001 
Q 1428 2844 1947 2747 
L 2328 2669 
Q 3034 2534 3370 2195 
Q 3706 1856 3706 1288 
Q 3706 609 3251 259 
Q 2797 -91 1919 -91 
Q 1588 -91 1214 -16 
Q 841 59 441 206 
L 441 856 
Q 825 641 1194 531 
Q 1563 422 1919 422 
Q 2459 422 2753 634 
Q 3047 847 3047 1241 
Q 3047 1584 2836 1778 
Q 2625 1972 2144 2069 
L 1759 2144 
Q 1053 2284 737 2584 
Q 422 2884 422 3419 
Q 422 4038 858 4394 
Q 1294 4750 2059 4750 
Q 2388 4750 2728 4690 
Q 3069 4631 3425 4513 
z
" transform="scale(0.015625)"/>
       <path id="DejaVuSans-33" d="M 2597 2516 
Q 3050 2419 3304 2112 
Q 3559 1806 3559 1356 
Q 3559 666 3084 287 
Q 2609 -91 1734 -91 
Q 1441 -91 1130 -33 
Q 819 25 488 141 
L 488 750 
Q 750 597 1062 519 
Q 1375 441 1716 441 
Q 2309 441 2620 675 
Q 2931 909 2931 1356 
Q 2931 1769 2642 2001 
Q 2353 2234 1838 2234 
L 1294 2234 
L 1294 2753 
L 1863 2753 
Q 2328 2753 2575 2939 
Q 2822 3125 2822 3475 
Q 2822 3834 2567 4026 
Q 2313 4219 1838 4219 
Q 1578 4219 1281 4162 
Q 984 4106 628 3988 
L 628 4550 
Q 988 4650 1302 4700 
Q 1616 4750 1894 4750 
Q 2613 4750 3031 4423 
Q 3450 4097 3450 3541 
Q 3450 3153 3228 2886 
Q 3006 2619 2597 2516 
z
" transform="scale(0.015625)"/>
      </defs>
      <use xlink:href="#DejaVuSans-43"/>
      <use xlink:href="#DejaVuSans-6f" x="69.824219"/>
      <use xlink:href="#DejaVuSans-72" x="131.005859"/>
      <use xlink:href="#DejaVuSans-76" x="172.119141"/>
      <use xlink:href="#DejaVuSans-69" x="231.298828"/>
      <use xlink:href="#DejaVuSans-20" x="259.082031"/>
      <use xlink:href="#DejaVuSans-65" x="290.869141"/>
      <use xlink:href="#DejaVuSans-74" x="352.392578"/>
      <use xlink:href="#DejaVuSans-20" x="391.601562"/>
      <use xlink:href="#DejaVuSans-61" x="423.388672"/>
      <use xlink:href="#DejaVuSans-6c" x="484.667969"/>
      <use xlink:href="#DejaVuSans-2e" x="512.451172"/>
      <use xlink:href="#DejaVuSans-20" x="544.238281"/>
      <use xlink:href="#DejaVuSans-5b" x="576.025391"/>
      <use xlink:href="#DejaVuSans-49" x="615.039062"/>
      <use xlink:href="#DejaVuSans-43" x="644.53125"/>
      <use xlink:href="#DejaVuSans-41" x="714.355469"/>
      <use xlink:href="#DejaVuSans-53" x="782.763672"/>
      <use xlink:href="#DejaVuSans-53" x="846.240234"/>
      <use xlink:href="#DejaVuSans-50" x="909.716797"/>
      <use xlink:href="#DejaVuSans-32" x="970.019531"/>
      <use xlink:href="#DejaVuSans-30" x="1033.642578"/>
      <use xlink:href="#DejaVuSans-32" x="1097.265625"/>
      <use xlink:href="#DejaVuSans-33" x="1160.888672"/>
      <use xlink:href="#DejaVuSans-5d" x="1224.511719"/>
     </g>
    </g>
    <g id="PathCollection_19">
     <defs>
      <path id="mfbbccb75bb" d="M 0 7.071068 
C 1.875269 7.071068 3.673985 6.326016 5 5 
C 6.326016 3.673985 7.071068 1.875269 7.071068 0 
C 7.071068 -1.875269 6.326016 -3.673985 5 -5 
C 3.673985 -6.326016 1.875269 -7.071068 0 -7.071068 
C -1.875269 -7.071068 -3.673985 -6.326016 -5 -5 
C -6.326016 -3.673985 -7.071068 -1.875269 -7.071068 0 
C -7.071068 1.875269 -6.326016 3.673985 -5 5 
C -3.673985 6.326016 -1.875269 7.071068 0 7.071068 
z
" style="stroke: #ffffff; stroke-width: 2"/>
     </defs>
     <g>
      <use xlink:href="#mfbbccb75bb" x="703.77125" y="184.840469" style="fill: #e377c2; stroke: #ffffff; stroke-width: 2"/>
     </g>
    </g>
    <g id="text_25">
     <!-- LGrad [CVPR2023] -->
     <g transform="translate(714.77125 190.615469)scale(0.22 -0.22)">
      <defs>
       <path id="DejaVuSans-64" d="M 2906 2969 
L 2906 4863 
L 3481 4863 
L 3481 0 
L 2906 0 
L 2906 525 
Q 2725 213 2448 61 
Q 2172 -91 1784 -91 
Q 1150 -91 751 415 
Q 353 922 353 1747 
Q 353 2572 751 3078 
Q 1150 3584 1784 3584 
Q 2172 3584 2448 3432 
Q 2725 3281 2906 2969 
z
M 947 1747 
Q 947 1113 1208 752 
Q 1469 391 1925 391 
Q 2381 391 2643 752 
Q 2906 1113 2906 1747 
Q 2906 2381 2643 2742 
Q 2381 3103 1925 3103 
Q 1469 3103 1208 2742 
Q 947 2381 947 1747 
z
" transform="scale(0.015625)"/>
      </defs>
      <use xlink:href="#DejaVuSans-4c"/>
      <use xlink:href="#DejaVuSans-47" x="55.712891"/>
      <use xlink:href="#DejaVuSans-72" x="133.203125"/>
      <use xlink:href="#DejaVuSans-61" x="174.316406"/>
      <use xlink:href="#DejaVuSans-64" x="235.595703"/>
      <use xlink:href="#DejaVuSans-20" x="299.072266"/>
      <use xlink:href="#DejaVuSans-5b" x="330.859375"/>
      <use xlink:href="#DejaVuSans-43" x="369.873047"/>
      <use xlink:href="#DejaVuSans-56" x="439.697266"/>
      <use xlink:href="#DejaVuSans-50" x="508.105469"/>
      <use xlink:href="#DejaVuSans-52" x="568.408203"/>
      <use xlink:href="#DejaVuSans-32" x="637.890625"/>
      <use xlink:href="#DejaVuSans-30" x="701.513672"/>
      <use xlink:href="#DejaVuSans-32" x="765.136719"/>
      <use xlink:href="#DejaVuSans-33" x="828.759766"/>
      <use xlink:href="#DejaVuSans-5d" x="892.382812"/>
     </g>
    </g>
    <g id="PathCollection_20">
     <defs>
      <path id="mee78809afa" d="M 0 7.071068 
C 1.875269 7.071068 3.673985 6.326016 5 5 
C 6.326016 3.673985 7.071068 1.875269 7.071068 0 
C 7.071068 -1.875269 6.326016 -3.673985 5 -5 
C 3.673985 -6.326016 1.875269 -7.071068 0 -7.071068 
C -1.875269 -7.071068 -3.673985 -6.326016 -5 -5 
C -6.326016 -3.673985 -7.071068 -1.875269 -7.071068 0 
C -7.071068 1.875269 -6.326016 3.673985 -5 5 
C -3.673985 6.326016 -1.875269 7.071068 0 7.071068 
z
" style="stroke: #ffffff; stroke-width: 2"/>
     </defs>
     <g>
      <use xlink:href="#mee78809afa" x="703.77125" y="217.132344" style="fill: #17becf; stroke: #ffffff; stroke-width: 2"/>
     </g>
    </g>
    <g id="text_26">
     <!-- Ojha et al. [CVPR2023] -->
     <g transform="translate(714.77125 222.907344)scale(0.22 -0.22)">
      <defs>
       <path id="DejaVuSans-4f" d="M 2522 4238 
Q 1834 4238 1429 3725 
Q 1025 3213 1025 2328 
Q 1025 1447 1429 934 
Q 1834 422 2522 422 
Q 3209 422 3611 934 
Q 4013 1447 4013 2328 
Q 4013 3213 3611 3725 
Q 3209 4238 2522 4238 
z
M 2522 4750 
Q 3503 4750 4090 4092 
Q 4678 3434 4678 2328 
Q 4678 1225 4090 567 
Q 3503 -91 2522 -91 
Q 1538 -91 948 565 
Q 359 1222 359 2328 
Q 359 3434 948 4092 
Q 1538 4750 2522 4750 
z
" transform="scale(0.015625)"/>
       <path id="DejaVuSans-6a" d="M 603 3500 
L 1178 3500 
L 1178 -63 
Q 1178 -731 923 -1031 
Q 669 -1331 103 -1331 
L -116 -1331 
L -116 -844 
L 38 -844 
Q 366 -844 484 -692 
Q 603 -541 603 -63 
L 603 3500 
z
M 603 4863 
L 1178 4863 
L 1178 4134 
L 603 4134 
L 603 4863 
z
" transform="scale(0.015625)"/>
      </defs>
      <use xlink:href="#DejaVuSans-4f"/>
      <use xlink:href="#DejaVuSans-6a" x="78.710938"/>
      <use xlink:href="#DejaVuSans-68" x="106.494141"/>
      <use xlink:href="#DejaVuSans-61" x="169.873047"/>
      <use xlink:href="#DejaVuSans-20" x="231.152344"/>
      <use xlink:href="#DejaVuSans-65" x="262.939453"/>
      <use xlink:href="#DejaVuSans-74" x="324.462891"/>
      <use xlink:href="#DejaVuSans-20" x="363.671875"/>
      <use xlink:href="#DejaVuSans-61" x="395.458984"/>
      <use xlink:href="#DejaVuSans-6c" x="456.738281"/>
      <use xlink:href="#DejaVuSans-2e" x="484.521484"/>
      <use xlink:href="#DejaVuSans-20" x="516.308594"/>
      <use xlink:href="#DejaVuSans-5b" x="548.095703"/>
      <use xlink:href="#DejaVuSans-43" x="587.109375"/>
      <use xlink:href="#DejaVuSans-56" x="656.933594"/>
      <use xlink:href="#DejaVuSans-50" x="725.341797"/>
      <use xlink:href="#DejaVuSans-52" x="785.644531"/>
      <use xlink:href="#DejaVuSans-32" x="855.126953"/>
      <use xlink:href="#DejaVuSans-30" x="918.75"/>
      <use xlink:href="#DejaVuSans-32" x="982.373047"/>
      <use xlink:href="#DejaVuSans-33" x="1045.996094"/>
      <use xlink:href="#DejaVuSans-5d" x="1109.619141"/>
     </g>
    </g>
    <g id="PathCollection_21">
     <defs>
      <path id="mfc35a488cb" d="M 0 7.071068 
C 1.875269 7.071068 3.673985 6.326016 5 5 
C 6.326016 3.673985 7.071068 1.875269 7.071068 0 
C 7.071068 -1.875269 6.326016 -3.673985 5 -5 
C 3.673985 -6.326016 1.875269 -7.071068 0 -7.071068 
C -1.875269 -7.071068 -3.673985 -6.326016 -5 -5 
C -6.326016 -3.673985 -7.071068 -1.875269 -7.071068 0 
C -7.071068 1.875269 -6.326016 3.673985 -5 5 
C -3.673985 6.326016 -1.875269 7.071068 0 7.071068 
z
" style="stroke: #ffffff; stroke-width: 2"/>
     </defs>
     <g>
      <use xlink:href="#mfc35a488cb" x="703.77125" y="249.424219" style="fill: #bcbd22; stroke: #ffffff; stroke-width: 2"/>
     </g>
    </g>
    <g id="text_27">
     <!-- DIRE [ICCV2023] -->
     <g transform="translate(714.77125 255.199219)scale(0.22 -0.22)">
      <defs>
       <path id="DejaVuSans-44" d="M 1259 4147 
L 1259 519 
L 2022 519 
Q 2988 519 3436 956 
Q 3884 1394 3884 2338 
Q 3884 3275 3436 3711 
Q 2988 4147 2022 4147 
L 1259 4147 
z
M 628 4666 
L 1925 4666 
Q 3281 4666 3915 4102 
Q 4550 3538 4550 2338 
Q 4550 1131 3912 565 
Q 3275 0 1925 0 
L 628 0 
L 628 4666 
z
" transform="scale(0.015625)"/>
      </defs>
      <use xlink:href="#DejaVuSans-44"/>
      <use xlink:href="#DejaVuSans-49" x="77.001953"/>
      <use xlink:href="#DejaVuSans-52" x="106.494141"/>
      <use xlink:href="#DejaVuSans-45" x="175.976562"/>
      <use xlink:href="#DejaVuSans-20" x="239.160156"/>
      <use xlink:href="#DejaVuSans-5b" x="270.947266"/>
      <use xlink:href="#DejaVuSans-49" x="309.960938"/>
      <use xlink:href="#DejaVuSans-43" x="339.453125"/>
      <use xlink:href="#DejaVuSans-43" x="409.277344"/>
      <use xlink:href="#DejaVuSans-56" x="479.101562"/>
      <use xlink:href="#DejaVuSans-32" x="547.509766"/>
      <use xlink:href="#DejaVuSans-30" x="611.132812"/>
      <use xlink:href="#DejaVuSans-32" x="674.755859"/>
      <use xlink:href="#DejaVuSans-33" x="738.378906"/>
      <use xlink:href="#DejaVuSans-5d" x="802.001953"/>
     </g>
    </g>
    <g id="PathCollection_22">
     <defs>
      <path id="m30348704b7" d="M 0 7.071068 
C 1.875269 7.071068 3.673985 6.326016 5 5 
C 6.326016 3.673985 7.071068 1.875269 7.071068 0 
C 7.071068 -1.875269 6.326016 -3.673985 5 -5 
C 3.673985 -6.326016 1.875269 -7.071068 0 -7.071068 
C -1.875269 -7.071068 -3.673985 -6.326016 -5 -5 
C -6.326016 -3.673985 -7.071068 -1.875269 -7.071068 0 
C -7.071068 1.875269 -6.326016 3.673985 -5 5 
C -3.673985 6.326016 -1.875269 7.071068 0 7.071068 
z
" style="stroke: #ffffff; stroke-width: 2"/>
     </defs>
     <g>
      <use xlink:href="#m30348704b7" x="703.77125" y="281.716094" style="fill: #1f00b4; stroke: #ffffff; stroke-width: 2"/>
     </g>
    </g>
    <g id="text_28">
     <!-- NPR [CVPR2024] -->
     <g transform="translate(714.77125 287.491094)scale(0.22 -0.22)">
      <defs>
       <path id="DejaVuSans-4e" d="M 628 4666 
L 1478 4666 
L 3547 763 
L 3547 4666 
L 4159 4666 
L 4159 0 
L 3309 0 
L 1241 3903 
L 1241 0 
L 628 0 
L 628 4666 
z
" transform="scale(0.015625)"/>
      </defs>
      <use xlink:href="#DejaVuSans-4e"/>
      <use xlink:href="#DejaVuSans-50" x="74.804688"/>
      <use xlink:href="#DejaVuSans-52" x="135.107422"/>
      <use xlink:href="#DejaVuSans-20" x="204.589844"/>
      <use xlink:href="#DejaVuSans-5b" x="236.376953"/>
      <use xlink:href="#DejaVuSans-43" x="275.390625"/>
      <use xlink:href="#DejaVuSans-56" x="345.214844"/>
      <use xlink:href="#DejaVuSans-50" x="413.623047"/>
      <use xlink:href="#DejaVuSans-52" x="473.925781"/>
      <use xlink:href="#DejaVuSans-32" x="543.408203"/>
      <use xlink:href="#DejaVuSans-30" x="607.03125"/>
      <use xlink:href="#DejaVuSans-32" x="670.654297"/>
      <use xlink:href="#DejaVuSans-34" x="734.277344"/>
      <use xlink:href="#DejaVuSans-5d" x="797.900391"/>
     </g>
    </g>
    <g id="PathCollection_23">
     <defs>
      <path id="m532f63ba19" d="M 0 7.071068 
C 1.875269 7.071068 3.673985 6.326016 5 5 
C 6.326016 3.673985 7.071068 1.875269 7.071068 0 
C 7.071068 -1.875269 6.326016 -3.673985 5 -5 
C 3.673985 -6.326016 1.875269 -7.071068 0 -7.071068 
C -1.875269 -7.071068 -3.673985 -6.326016 -5 -5 
C -6.326016 -3.673985 -7.071068 -1.875269 -7.071068 0 
C -7.071068 1.875269 -6.326016 3.673985 -5 5 
C -3.673985 6.326016 -1.875269 7.071068 0 7.071068 
z
" style="stroke: #ffffff; stroke-width: 2"/>
     </defs>
     <g>
      <use xlink:href="#m532f63ba19" x="703.77125" y="314.007969" style="fill: #d62728; stroke: #ffffff; stroke-width: 2"/>
     </g>
    </g>
    <g id="text_29">
     <!-- Ours -->
     <g transform="translate(714.77125 319.782969)scale(0.22 -0.22)">
      <use xlink:href="#DejaVuSans-4f"/>
      <use xlink:href="#DejaVuSans-75" x="78.710938"/>
      <use xlink:href="#DejaVuSans-72" x="142.089844"/>
      <use xlink:href="#DejaVuSans-73" x="183.203125"/>
     </g>
    </g>
   </g>
   <g id="legend_2">
    <g id="patch_8">
     <path d="M 59.37125 217.318906 
L 164.68875 217.318906 
Q 167.88875 217.318906 167.88875 214.118906 
L 167.88875 16.518906 
Q 167.88875 13.318906 164.68875 13.318906 
L 59.37125 13.318906 
Q 56.17125 13.318906 56.17125 16.518906 
L 56.17125 214.118906 
Q 56.17125 217.318906 59.37125 217.318906 
z
" style="fill: #ffffff; opacity: 0.8; stroke: #cccccc; stroke-linejoin: miter"/>
    </g>
    <g id="PathCollection_24">
     <defs>
      <path id="m6d455fe8d9" d="M 0 19.557607 
C 5.186738 19.557607 10.161739 17.496894 13.829317 13.829317 
C 17.496894 10.161739 19.557607 5.186738 19.557607 0 
C 19.557607 -5.186738 17.496894 -10.161739 13.829317 -13.829317 
C 10.161739 -17.496894 5.186738 -19.557607 0 -19.557607 
C -5.186738 -19.557607 -10.161739 -17.496894 -13.829317 -13.829317 
C -17.496894 -10.161739 -19.557607 -5.186738 -19.557607 0 
C -19.557607 5.186738 -17.496894 10.161739 -13.829317 13.829317 
C -10.161739 17.496894 -5.186738 19.557607 0 19.557607 
z
" style="stroke: #000000; stroke-opacity: 0.5"/>
     </defs>
     <g>
      <use xlink:href="#m6d455fe8d9" x="83.37125" y="36.878906" style="fill-opacity: 0.5; stroke: #000000; stroke-opacity: 0.5"/>
     </g>
    </g>
    <g id="text_30">
     <!-- 100K -->
     <g transform="translate(110.57125 44.358906)scale(0.16 -0.16)">
      <defs>
       <path id="DejaVuSans-4b" d="M 628 4666 
L 1259 4666 
L 1259 2694 
L 3353 4666 
L 4166 4666 
L 1850 2491 
L 4331 0 
L 3500 0 
L 1259 2247 
L 1259 0 
L 628 0 
L 628 4666 
z
" transform="scale(0.015625)"/>
      </defs>
      <use xlink:href="#DejaVuSans-31"/>
      <use xlink:href="#DejaVuSans-30" x="63.623047"/>
      <use xlink:href="#DejaVuSans-30" x="127.246094"/>
      <use xlink:href="#DejaVuSans-4b" x="190.869141"/>
     </g>
    </g>
    <g id="PathCollection_25">
     <defs>
      <path id="m2914d7e4ec" d="M 0 11.228776 
C 2.977906 11.228776 5.834246 10.045641 7.939944 7.939944 
C 10.045641 5.834246 11.228776 2.977906 11.228776 0 
C 11.228776 -2.977906 10.045641 -5.834246 7.939944 -7.939944 
C 5.834246 -10.045641 2.977906 -11.228776 0 -11.228776 
C -2.977906 -11.228776 -5.834246 -10.045641 -7.939944 -7.939944 
C -10.045641 -5.834246 -11.228776 -2.977906 -11.228776 0 
C -11.228776 2.977906 -10.045641 5.834246 -7.939944 7.939944 
C -5.834246 10.045641 -2.977906 11.228776 0 11.228776 
z
" style="stroke: #000000; stroke-opacity: 0.5"/>
     </defs>
     <g>
      <use xlink:href="#m2914d7e4ec" x="83.37125" y="74.798906" style="fill-opacity: 0.5; stroke: #000000; stroke-opacity: 0.5"/>
     </g>
    </g>
    <g id="text_31">
     <!-- 10K -->
     <g transform="translate(110.57125 82.278906)scale(0.16 -0.16)">
      <use xlink:href="#DejaVuSans-31"/>
      <use xlink:href="#DejaVuSans-30" x="63.623047"/>
      <use xlink:href="#DejaVuSans-4b" x="127.246094"/>
     </g>
    </g>
    <g id="PathCollection_26">
     <defs>
      <path id="m5d47444f51" d="M 0 6.708204 
C 1.779036 6.708204 3.485448 6.001385 4.743416 4.743416 
C 6.001385 3.485448 6.708204 1.779036 6.708204 0 
C 6.708204 -1.779036 6.001385 -3.485448 4.743416 -4.743416 
C 3.485448 -6.001385 1.779036 -6.708204 0 -6.708204 
C -1.779036 -6.708204 -3.485448 -6.001385 -4.743416 -4.743416 
C -6.001385 -3.485448 -6.708204 -1.779036 -6.708204 0 
C -6.708204 1.779036 -6.001385 3.485448 -4.743416 4.743416 
C -3.485448 6.001385 -1.779036 6.708204 0 6.708204 
z
" style="stroke: #000000; stroke-opacity: 0.5"/>
     </defs>
     <g>
      <use xlink:href="#m5d47444f51" x="83.37125" y="112.718906" style="fill-opacity: 0.5; stroke: #000000; stroke-opacity: 0.5"/>
     </g>
    </g>
    <g id="text_32">
     <!-- 1K -->
     <g transform="translate(110.57125 120.198906)scale(0.16 -0.16)">
      <use xlink:href="#DejaVuSans-31"/>
      <use xlink:href="#DejaVuSans-4b" x="63.623047"/>
     </g>
    </g>
    <g id="PathCollection_27">
     <defs>
      <path id="m1f7ee50f30" d="M 0 4.399834 
C 1.16685 4.399834 2.286065 3.93624 3.111153 3.111153 
C 3.93624 2.286065 4.399834 1.16685 4.399834 0 
C 4.399834 -1.16685 3.93624 -2.286065 3.111153 -3.111153 
C 2.286065 -3.93624 1.16685 -4.399834 0 -4.399834 
C -1.16685 -4.399834 -2.286065 -3.93624 -3.111153 -3.111153 
C -3.93624 -2.286065 -4.399834 -1.16685 -4.399834 0 
C -4.399834 1.16685 -3.93624 2.286065 -3.111153 3.111153 
C -2.286065 3.93624 -1.16685 4.399834 0 4.399834 
z
" style="stroke: #000000; stroke-opacity: 0.5"/>
     </defs>
     <g>
      <use xlink:href="#m1f7ee50f30" x="83.37125" y="150.638906" style="fill-opacity: 0.5; stroke: #000000; stroke-opacity: 0.5"/>
     </g>
    </g>
    <g id="text_33">
     <!-- 0.1K -->
     <g transform="translate(110.57125 158.118906)scale(0.16 -0.16)">
      <use xlink:href="#DejaVuSans-30"/>
      <use xlink:href="#DejaVuSans-2e" x="63.623047"/>
      <use xlink:href="#DejaVuSans-31" x="95.410156"/>
      <use xlink:href="#DejaVuSans-4b" x="159.033203"/>
     </g>
    </g>
    <g id="PathCollection_28">
     <defs>
      <path id="mddd68485ea" d="M 0 3.354102 
C 0.889518 3.354102 1.742724 3.000693 2.371708 2.371708 
C 3.000693 1.742724 3.354102 0.889518 3.354102 0 
C 3.354102 -0.889518 3.000693 -1.742724 2.371708 -2.371708 
C 1.742724 -3.000693 0.889518 -3.354102 0 -3.354102 
C -0.889518 -3.354102 -1.742724 -3.000693 -2.371708 -2.371708 
C -3.000693 -1.742724 -3.354102 -0.889518 -3.354102 0 
C -3.354102 0.889518 -3.000693 1.742724 -2.371708 2.371708 
C -1.742724 3.000693 -0.889518 3.354102 0 3.354102 
z
" style="stroke: #000000; stroke-opacity: 0.5"/>
     </defs>
     <g>
      <use xlink:href="#mddd68485ea" x="83.37125" y="188.558906" style="fill-opacity: 0.5; stroke: #000000; stroke-opacity: 0.5"/>
     </g>
    </g>
    <g id="text_34">
     <!-- 0.01K -->
     <g transform="translate(110.57125 196.038906)scale(0.16 -0.16)">
      <use xlink:href="#DejaVuSans-30"/>
      <use xlink:href="#DejaVuSans-2e" x="63.623047"/>
      <use xlink:href="#DejaVuSans-30" x="95.410156"/>
      <use xlink:href="#DejaVuSans-31" x="159.033203"/>
      <use xlink:href="#DejaVuSans-4b" x="222.65625"/>
     </g>
    </g>
   </g>
  </g>
 </g>
 <defs>
  <clipPath id="p24e0dd588f">
   <rect x="48.17125" y="5.318906" width="613.8" height="326.16"/>
  </clipPath>
 </defs>
</svg>
